<?xml version="1.0" standalone="no"?>
<!DOCTYPE svg PUBLIC "-//W3C//DTD SVG 20010904//EN"
 "http://www.w3.org/TR/2001/REC-SVG-20010904/DTD/svg10.dtd">
<svg version="1.0" xmlns="http://www.w3.org/2000/svg"
 width="64.000000pt" height="64.000000pt" viewBox="0 0 64.000000 64.000000"
 preserveAspectRatio="xMidYMid meet">

<g transform="translate(0.000000,64.000000) scale(0.100000,-0.100000)"
fill="#000000" stroke="none">
<path d="M131 577 c-19 -7 -44 -25 -55 -40 -20 -27 -21 -41 -21 -217 0 -176 1
-190 21 -217 32 -43 72 -52 244 -52 172 0 212 9 244 52 20 27 21 41 21 217 0
176 -1 190 -21 217 -11 15 -36 33 -55 40 -45 16 -333 16 -378 0z m396 -63 c8
-22 -10 -49 -32 -49 -10 0 -22 7 -28 16 -15 24 -1 49 28 49 15 0 28 -7 32 -16z
m-104 -57 c100 -76 85 -238 -29 -292 -52 -25 -132 -17 -177 18 -99 75 -85 235
25 291 50 25 136 17 181 -17z"/>
<path d="M285 411 c-64 -27 -81 -110 -32 -158 60 -61 162 -19 162 67 0 66 -72
116 -130 91z"/>
</g>
</svg>
